<?xml version="1.0" encoding="utf-8"?>
<!-- Generator: Adobe Illustrator 24.1.0, SVG Export Plug-In . SVG Version: 6.00 Build 0)  -->
<svg version="1.1" id="Layer_1" focusable="false" xmlns="http://www.w3.org/2000/svg" xmlns:xlink="http://www.w3.org/1999/xlink"
	 x="0px" y="0px" viewBox="0 0 448 512" style="enable-background:new 0 0 448 512;" xml:space="preserve">
<style type="text/css">
	.st0{fill:#FFFFFF;}
</style>
<g>
	<path class="st0" d="M296,96H152c-26.5,0-48,17.9-48,40v24c0,53,43,96,96,96h48c53,0,96-43,96-96v-24C344,113.9,322.5,96,296,96z
		 M188,172l-12,36l-12-36l-36-12l36-12l12-36l12,36l36,12L188,172z M176,448c-8.8,0-16,7.2-16,16v48h32v-48
		C192,455.2,184.8,448,176,448z M272,448c-8.8,0-16,7.2-16,16s7.2,16,16,16s16-7.2,16-16S280.8,448,272,448z"/>
	<path d="M327.6,321.4c-63,40.8-144.2,40.8-207.2,0C52.9,328.5,0,385,0,454.4v9.6c0,26.5,21.5,48,48,48l0,0h80v-64
		c0-17.7,14.3-32,32-32h128c17.7,0,32,14.3,32,32v64h80c26.5,0,48-21.5,48-48l0,0v-9.6C448,385,395.1,328.5,327.6,321.4z M64,224
		h13.5c35.2,80.9,129.4,117.9,210.3,82.7c37-16.1,66.6-45.7,82.7-82.7H384c8.8,0,16-7.2,16-16v-96c0-8.8-7.2-16-16-16h-13.5
		C335.3,15.1,241.1-21.9,160.2,13.3C123.2,29.4,93.6,59,77.5,96H64c-8.8,0-16,7.2-16,16v96C48,216.8,55.2,224,64,224z M104,136
		c0-22.1,21.5-40,48-40h144c26.5,0,48,17.9,48,40v24c0,53-43,96-96,96h-48c-53,0-96-43-96-96V136z"/>
</g>
</svg>
