<?xml version="1.0" encoding="utf-8"?>
<!-- Generator: Adobe Illustrator 24.1.0, SVG Export Plug-In . SVG Version: 6.00 Build 0)  -->
<svg version="1.1" id="Layer_1" focusable="false" xmlns="http://www.w3.org/2000/svg" xmlns:xlink="http://www.w3.org/1999/xlink"
	 x="0px" y="0px" viewBox="0 0 448 512" style="enable-background:new 0 0 448 512;" xml:space="preserve">
<style type="text/css">
	.st0{fill:#FFFFFF;}
</style>
<g>
	<path class="st0" d="M176,240h-32v32h32V240z M176,448c-8.8,0-16,7.2-16,16c0,0,0,0,0,0v48h32v-48C192,455.2,184.8,448,176,448
		C176,448,176,448,176,448z M0,146v92c0,9.9,8,18,18,18c0,0,0,0,0,0h30V128H18C8.1,128,0,136,0,146C0,146,0,146,0,146z M430,128h-30
		v128h30c9.9,0,18-8,18-18c0,0,0,0,0,0v-92C448,136.1,440,128,430,128C430,128,430,128,430,128z M208,272h32v-32h-32V272z M272,272
		h32v-32h-32V272z M272,448c-8.8,0-16,7.2-16,16s7.2,16,16,16s16-7.2,16-16C288,455.2,280.8,448,272,448C272,448,272,448,272,448z
		 M224,0c-8.8,0-16,7.2-16,16c0,0,0,0,0,0v48h32V16C240,7.2,232.8,0,224,0C224,0,224,0,224,0z"/>
	<path d="M116,320h216c19.9,0,36-16.1,36-36V109c0-24.8-20.1-45-45-45c0,0,0,0,0,0H125c-24.8,0-45,20.1-45,45c0,0,0,0,0,0v175
		C80,303.9,96.1,320,116,320z M304,272h-32v-32h32V272z M288,128c17.7,0,32,14.3,32,32s-14.3,32-32,32s-32-14.3-32-32
		C256,142.3,270.3,128,288,128C288,128,288,128,288,128z M208,240h32v32h-32V240z M176,272h-32v-32h32V272z M160,128
		c17.7,0,32,14.3,32,32s-14.3,32-32,32s-32-14.3-32-32C128,142.3,142.3,128,160,128C160,128,160,128,160,128z M352,352H96
		c-53,0-96,43-96,96c0,0,0,0,0,0v32c0,17.7,14.3,32,32,32h96v-64c0-17.7,14.3-32,32-32h128c17.7,0,32,14.3,32,32v64h96
		c17.7,0,32-14.3,32-32v-32C448,395,405,352,352,352C352,352,352,352,352,352z"/>
</g>
</svg>
