<?xml version="1.0" encoding="utf-8"?>
<!-- Generator: Adobe Illustrator 24.1.0, SVG Export Plug-In . SVG Version: 6.00 Build 0)  -->
<svg version="1.1" id="Layer_1" focusable="false" xmlns="http://www.w3.org/2000/svg" xmlns:xlink="http://www.w3.org/1999/xlink"
	 x="0px" y="0px" viewBox="0 0 448 512" style="enable-background:new 0 0 448 512;" xml:space="preserve">
<style type="text/css">
	.st0{fill:#FFFFFF;}
</style>
<g>
	<path class="st0" d="M255.4,421.2L224,480l-31.4-58.8L208,352l-17.8-35.6c22.3,4.8,45.3,4.8,67.6,0L240,352L255.4,421.2z M224,288
		c70.4,0,127.6-56.8,128-127.2c-7.5,1.5-15.5,3-24,4.2v6.6c-0.1,0.1-6.1,3.5-6.9,6.3c-4.2,12.9-7.6,26.6-17.9,36.2
		c-10.9,10.1-52,24.3-69.3-27.1c-3-9.1-16.7-9.1-19.8,0c-18.4,54.4-60.7,35.1-69.3,27.1c-10.3-9.5-13.8-23.3-17.9-36.2
		c-0.9-2.7-6.8-6.2-6.8-6.3V165c-8.5-1.2-16.5-2.7-24-4.2C96.4,231.2,153.6,288,224,288z"/>
	<path d="M120,165v6.6c0,0.1,6,3.6,6.8,6.3c4.1,12.9,7.6,26.6,17.9,36.2c8.7,8,50.9,27.3,69.3-27.1c3.1-9.1,16.8-9.1,19.8,0
		c17.3,51.4,58.4,37.2,69.3,27.1c10.3-9.5,13.6-23.3,17.9-36.2c0.9-2.8,6.8-6.2,6.9-6.3V165c53-7.8,88-21.5,88-37
		c0-13.8-27.5-26-70.6-34.1c-9.4-32.1-26.7-64.1-40-80.7C296,1.3,279.5-2.4,265.9,4.4l-27.6,13.8c-9,4.5-19.6,4.5-28.6,0L182.1,4.4
		c-13.6-6.8-30.1-3.1-39.5,8.8c-13.2,16.6-30.6,48.6-40,80.7C59.5,102,32,114.2,32,128C32,143.5,67.1,157.2,120,165z M383.9,308.3
		l23.9-62.6c3.1-8.3-1-17.5-9.3-20.7c-1.8-0.7-3.8-1.1-5.7-1h-32.1L224,480L87.3,224h-31c-8.8,0-16,7.2-16,16c0,2.2,0.4,4.3,1.3,6.3
		l25.7,60.1C25.7,330.1,0,374.4,0,422.4V464c0,26.5,21.5,48,48,48l0,0h352c26.5,0,48-21.5,48-48l0,0v-41.6
		C448,375.8,423.7,332.5,383.9,308.3L383.9,308.3z"/>
</g>
</svg>
