<?xml version="1.0" encoding="utf-8"?>
<!-- Generator: Adobe Illustrator 24.1.0, SVG Export Plug-In . SVG Version: 6.00 Build 0)  -->
<svg version="1.1" id="Layer_1" xmlns="http://www.w3.org/2000/svg" xmlns:xlink="http://www.w3.org/1999/xlink" x="0px" y="0px"
	 viewBox="0 0 500 500" style="enable-background:new 0 0 500 500;" xml:space="preserve">
<style type="text/css">
	.st0{fill:#FFFFFF;}
</style>
<path class="st0" d="M362,161H138c-8.8,0-16,7.5-16,16.7v16.7c0,9.1,7.2,16.7,16,16.7h224c8.8,0,16-7.5,16-16.7v-16.7
	C378,168.5,370.8,161,362,161z"/>
<path class="st0" d="M266,256.9H138c-8.8,0-16,7.5-16,16.7v16.7c0,9.1,7.2,16.7,16,16.7h128c8.8,0,16-7.5,16-16.7v-16.7
	C282,264.5,274.8,256.9,266,256.9z"/>
<g>
	<path d="M250,50c110.3,0,200.1,81.7,200.1,182.2c0,47.9-20.3,93.2-57.2,127.5c-18.4,17-39.8,30.4-63.7,39.8
		c-25,9.8-51.6,14.8-79.1,14.8c-25,0-49.8-4.4-73.7-13l-26.5-9.6l-21.9,17.8c-13,10.5-30.5,22.2-51.5,30.4c8.4-15,16.7-32.4,22.8-51
		l8.6-26.2l-17.5-21.3c-26.4-32-40.3-69.7-40.3-109.2C50.1,131.7,139.8,50,250,50 M250,0C112,0,0.1,103.9,0.1,232.1
		c0,53.1,19.4,101.8,51.7,141c-14.5,44-44.8,81.2-45.3,81.7c-6.4,7.8-8.2,19.2-4.5,29c3.7,9.8,12.2,16.2,21.6,16.2
		c60.1,0,107.4-28.7,135.8-51.7c28.2,10.2,58.7,16,90.7,16c138.1,0,250-103.9,250-232.1S388.1,0,250,0L250,0z"/>
</g>
</svg>
