<?xml version="1.0" encoding="utf-8"?>
<!-- Generator: Adobe Illustrator 24.1.0, SVG Export Plug-In . SVG Version: 6.00 Build 0)  -->
<svg version="1.1" id="Layer_1" xmlns="http://www.w3.org/2000/svg" xmlns:xlink="http://www.w3.org/1999/xlink" x="0px" y="0px"
	 viewBox="0 0 500 500" style="enable-background:new 0 0 500 500;" xml:space="preserve">
<style type="text/css">
	.st0{fill:none;stroke:#FFFFFF;stroke-width:50;stroke-miterlimit:10;}
</style>
<line class="st0" x1="92.3" y1="89.3" x2="407.7" y2="404.7"/>
<g>
	<path d="M250,50c53.4,0,103.7,20.8,141.4,58.6S450,196.6,450,250s-20.8,103.7-58.6,141.4S303.4,450,250,450s-103.7-20.8-141.4-58.6
		S50,303.4,50,250s20.8-103.7,58.6-141.4S196.6,50,250,50 M250,0C111.9,0,0,111.9,0,250s111.9,250,250,250s250-111.9,250-250
		S388.1,0,250,0L250,0z"/>
</g>
</svg>
