<?xml version="1.0" encoding="utf-8"?>
<!-- Generator: Adobe Illustrator 24.1.0, SVG Export Plug-In . SVG Version: 6.00 Build 0)  -->
<svg version="1.1" id="Layer_1" xmlns="http://www.w3.org/2000/svg" xmlns:xlink="http://www.w3.org/1999/xlink" x="0px" y="0px"
	 viewBox="0 0 500 500" style="enable-background:new 0 0 500 500;" xml:space="preserve">
<style type="text/css">
	.st0{fill:#FFFFFF;}
</style>
<g>
	<g>
		<path d="M250,111.8l71.3,142.7l8.9,17.9l8.9,17.9L419.1,450H270h-40H80.9l79.9-159.8l8.9-17.9l8.9-17.9L250,111.8 M250,10.5
			c-3.2,0-6.5,2.5-8.9,7.4L133.9,232.1c-4.9,9.8-13,25.9-17.9,35.8L8.9,482.1C4,492,9,500,20,500h210c11,0,29,0,40,0h210
			c11,0,16-8,11.1-17.9L383.9,267.9c-4.9-9.8-13-25.9-17.9-35.8L258.9,17.9C256.5,13,253.2,10.5,250,10.5L250,10.5z"/>
	</g>
	<path class="st0" d="M250.1,404.2c-16.2,0-27.5-8.7-27.5-24.6c0-15.6,11.3-24.3,27.5-24.3s27.2,8.7,27.2,24.3
		C277.3,395.5,266.3,404.2,250.1,404.2z M224,211.2h52.4l-9.3,126.4h-33.6L224,211.2z"/>
</g>
</svg>
