<?xml version="1.0" encoding="utf-8"?>
<!-- Generator: Adobe Illustrator 24.1.0, SVG Export Plug-In . SVG Version: 6.00 Build 0)  -->
<svg version="1.1" id="Layer_1" xmlns="http://www.w3.org/2000/svg" xmlns:xlink="http://www.w3.org/1999/xlink" x="0px" y="0px"
	 viewBox="0 0 500 500" style="enable-background:new 0 0 500 500;" xml:space="preserve">
<style type="text/css">
	.st0{fill:#AAAAAA;}
</style>
<g>
	<g>
		<path class="st0" d="M250,50c53.4,0,103.7,20.8,141.4,58.6S450,196.6,450,250s-20.8,103.7-58.6,141.4S303.4,450,250,450
			s-103.7-20.8-141.4-58.6S50,303.4,50,250s20.8-103.7,58.6-141.4S196.6,50,250,50 M250,0C111.9,0,0,111.9,0,250s111.9,250,250,250
			s250-111.9,250-250S388.1,0,250,0L250,0z"/>
	</g>
</g>
<g>
	<path class="st0" d="M204.9,356.5c-3.8,3.9-10.1,3.9-14,0L120.2,284c-3.8-3.9-3.8-10.3,0.2-14.1L142,249c3.9-3.8,10.3-3.8,14.1,0.2
		l34.9,35.7c3.8,3.9,10.1,3.9,14,0l138.5-142.2c3.8-3.9,10.2-4,14.1-0.2l21.5,20.9c3.9,3.8,4,10.2,0.2,14.1L204.9,356.5z"/>
</g>
</svg>
