<?xml version="1.0" encoding="utf-8"?>
<!-- Generator: Adobe Illustrator 24.1.0, SVG Export Plug-In . SVG Version: 6.00 Build 0)  -->
<svg version="1.1" id="Layer_1" xmlns="http://www.w3.org/2000/svg" xmlns:xlink="http://www.w3.org/1999/xlink" x="0px" y="0px"
	 viewBox="0 0 500 500" style="enable-background:new 0 0 500 500;" xml:space="preserve">
<style type="text/css">
	.st0{fill:#FFFFFF;}
	.st1{fill:none;stroke:#000000;stroke-miterlimit:10;}
	.st2{fill:none;}
	.st3{fill:none;stroke:#FFFFFF;stroke-width:50;stroke-miterlimit:10;}
</style>
<path class="st0" d="M112.2,109.2l54.6,54.6c7.6,7.6,2.2,20.6-8.6,20.6H14.1c-6.7,0-12.1-5.5-12.1-12.1V28.1
	c-0.1-10.8,12.9-16.2,20.5-8.6l0,0l52.6,52.6L112.2,109.2z"/>
<line class="st1" x1="101.9" y1="398.2" x2="101.6" y2="398.5"/>
<line class="st2" x1="111.6" y1="109.6" x2="102.5" y2="100.5"/>
<polyline class="st2" points="74.3,72.3 73.2,71.2 64.8,62.8 "/>
<path class="st3" d="M77.4,99.2l6.4-6.4C128,49.1,186.5,25,248.6,25c62.6,0,121.5,24.4,165.8,68.8S475,187.2,475,250
	c0,62.8-16.3,111.8-60.6,156.2S311.3,475,248.6,475c-50.6,0-98.7-15.9-139.3-46c-9-6.6-17.5-14-25.4-21.8l-6.2-6.1"/>
</svg>
