<?xml version="1.0" encoding="utf-8"?>
<!-- Generator: Adobe Illustrator 24.1.0, SVG Export Plug-In . SVG Version: 6.00 Build 0)  -->
<svg version="1.1" id="Layer_1" focusable="false" xmlns="http://www.w3.org/2000/svg" xmlns:xlink="http://www.w3.org/1999/xlink"
	 x="0px" y="0px" viewBox="0 0 448 512" style="enable-background:new 0 0 448 512;" xml:space="preserve">
<style type="text/css">
	.st0{fill:#E8C65D;}
	.st1{fill:#FFFFFF;}
</style>
<g>
	<path class="st0" d="M342.9,174.6c-2.3,0.5-4.5,1.4-6.9,1.4H112c-2.5,0-4.6-0.9-6.9-1.4C123.7,222.2,169.8,256,224,256
		S324.3,222.2,342.9,174.6z M224,0c-40.2,0-75.7,19-99.2,48h198.4C299.7,19,264.2,0,224,0z M325.9,353.6c-0.7-1-1.9-1.5-3.1-1.6
		c-1.2,0-2.3,0.5-3.1,1.4c-19.8,23-31.8,53.1-35.7,89.5c-0.2,1.6,0.6,3.1,2,3.9c1.4,0.7,3.1,0.6,4.4-0.3
		c24.9-19.3,33.8-23.8,37-24.8c0.4-0.2,0.9-0.3,1.4-0.4c2.2,2,7.7,7.8,19.9,25c0.8,1.1,2,1.7,3.3,1.7c0.4,0,0.9-0.1,1.3-0.2
		c1.7-0.6,2.8-2.2,2.7-3.9C354.8,408.5,344.7,378.2,325.9,353.6z"/>
	<path class="st1" d="M336,48H112c-17.7,0-32,14.3-32,32v64c0,15.4,10.9,28.2,25.3,31.3c2,0.4,4.1,0.7,6.2,0.7c0.2,0,0.3,0,0.5,0
		h224c0.2,0,0.3,0,0.5,0c2.1,0,4.2-0.3,6.2-0.7c14.5-3.1,25.3-15.9,25.3-31.3V80C368,62.3,353.7,48,336,48z M320,128H128V96h192V128
		z M313.6,288h-16.7c-46.3,21.3-99.5,21.3-145.8,0h-16.7C60.2,288,0,348.2,0,422.4V464c0,26.5,21.5,48,48,48h352
		c26.5,0,48-21.5,48-48v-41.6C448,348.2,387.8,288,313.6,288z M353.3,447.8c-0.4,0.1-0.8,0.2-1.3,0.2c-1.3,0-2.5-0.6-3.3-1.7
		c-12.2-17.2-17.6-23-19.8-25c-0.5,0.1-0.9,0.2-1.4,0.4c-3.3,1-12.2,5.5-37,24.8c-1.3,1-3,1.1-4.4,0.3c-1.4-0.8-2.2-2.3-2-3.9
		c3.9-36.4,15.9-66.5,35.7-89.5c0.8-0.9,1.9-1.4,3.1-1.4c1.2,0,2.3,0.6,3.1,1.6c18.8,24.6,28.9,55,30.1,90.3
		C356.1,445.6,355,447.2,353.3,447.8z"/>
	<rect x="128" y="96" class="st0" width="192" height="32"/>
</g>
</svg>
